<mxfile host="app.diagrams.net" modified="2024-03-12T21:03:52.889Z" agent="Mozilla/5.0 (Windows NT 10.0; Win64; x64) AppleWebKit/537.36 (KHTML, like Gecko) Chrome/122.0.0.0 Safari/537.36" etag="HZLArQRic4tyd4028v35" version="24.0.5" type="device">
  <diagram name="Page-1" id="yxscoTT7K0j_r8_fNl9o">
    <mxGraphModel dx="1311" dy="666" grid="1" gridSize="10" guides="1" tooltips="1" connect="1" arrows="1" fold="1" page="1" pageScale="1" pageWidth="850" pageHeight="1100" math="0" shadow="0">
      <root>
        <mxCell id="0" />
        <mxCell id="1" parent="0" />
        <mxCell id="2SFbNWSAHUumMO_DV1tx-1" value="" style="rounded=0;whiteSpace=wrap;html=1;" vertex="1" parent="1">
          <mxGeometry width="980" height="590" as="geometry" />
        </mxCell>
        <mxCell id="2SFbNWSAHUumMO_DV1tx-2" value="head&lt;div&gt;&lt;br&gt;&lt;/div&gt;" style="rounded=0;whiteSpace=wrap;html=1;" vertex="1" parent="1">
          <mxGeometry width="980" height="160" as="geometry" />
        </mxCell>
        <mxCell id="2SFbNWSAHUumMO_DV1tx-3" value="foto" style="ellipse;whiteSpace=wrap;html=1;aspect=fixed;" vertex="1" parent="1">
          <mxGeometry x="70" y="10" width="140" height="140" as="geometry" />
        </mxCell>
        <mxCell id="2SFbNWSAHUumMO_DV1tx-4" value="nome" style="rounded=0;whiteSpace=wrap;html=1;" vertex="1" parent="1">
          <mxGeometry x="390" y="20" width="340" height="110" as="geometry" />
        </mxCell>
        <mxCell id="2SFbNWSAHUumMO_DV1tx-5" value="" style="rounded=0;whiteSpace=wrap;html=1;" vertex="1" parent="1">
          <mxGeometry y="160" width="980" height="50" as="geometry" />
        </mxCell>
        <mxCell id="2SFbNWSAHUumMO_DV1tx-6" value="home" style="rounded=0;whiteSpace=wrap;html=1;" vertex="1" parent="1">
          <mxGeometry x="80" y="160" width="180" height="50" as="geometry" />
        </mxCell>
        <mxCell id="2SFbNWSAHUumMO_DV1tx-7" value="contato" style="rounded=0;whiteSpace=wrap;html=1;" vertex="1" parent="1">
          <mxGeometry x="380" y="160" width="180" height="50" as="geometry" />
        </mxCell>
        <mxCell id="2SFbNWSAHUumMO_DV1tx-8" value="projetos" style="rounded=0;whiteSpace=wrap;html=1;" vertex="1" parent="1">
          <mxGeometry x="660" y="160" width="180" height="50" as="geometry" />
        </mxCell>
        <mxCell id="2SFbNWSAHUumMO_DV1tx-13" value="footer" style="rounded=0;whiteSpace=wrap;html=1;" vertex="1" parent="1">
          <mxGeometry y="540" width="980" height="50" as="geometry" />
        </mxCell>
        <mxCell id="2SFbNWSAHUumMO_DV1tx-14" value="body&lt;div&gt;&lt;br&gt;&lt;/div&gt;" style="rounded=0;whiteSpace=wrap;html=1;" vertex="1" parent="1">
          <mxGeometry y="210" width="980" height="330" as="geometry" />
        </mxCell>
        <mxCell id="2SFbNWSAHUumMO_DV1tx-15" value="sobre mim" style="rounded=0;whiteSpace=wrap;html=1;" vertex="1" parent="1">
          <mxGeometry x="60" y="240" width="260" height="130" as="geometry" />
        </mxCell>
        <mxCell id="2SFbNWSAHUumMO_DV1tx-16" value="sobre mim" style="rounded=0;whiteSpace=wrap;html=1;" vertex="1" parent="1">
          <mxGeometry x="660" y="240" width="260" height="130" as="geometry" />
        </mxCell>
        <mxCell id="2SFbNWSAHUumMO_DV1tx-17" value="sobre mim" style="rounded=0;whiteSpace=wrap;html=1;" vertex="1" parent="1">
          <mxGeometry x="660" y="390" width="260" height="130" as="geometry" />
        </mxCell>
        <mxCell id="2SFbNWSAHUumMO_DV1tx-18" value="sobre mim" style="rounded=0;whiteSpace=wrap;html=1;" vertex="1" parent="1">
          <mxGeometry x="60" y="390" width="260" height="130" as="geometry" />
        </mxCell>
      </root>
    </mxGraphModel>
  </diagram>
</mxfile>
